<svg width="44" height="44" viewBox="0 0 44 44" fill="none" xmlns="http://www.w3.org/2000/svg">
<path d="M23.625 44H4.375C4.01033 44 3.66059 43.8551 3.40273 43.5973C3.14487 43.3394 3 42.9897 3 42.625V39.875C3 36.3138 8.21125 34.76 9.4625 34.375L19.5 30.6762V28.7512C17.9786 27.8752 16.6867 26.6507 15.7306 25.1782C14.7744 23.7058 14.1813 22.0275 14 20.2812C13.5783 20.0378 13.2288 19.6868 12.9872 19.264C12.7456 18.8412 12.6206 18.3619 12.625 17.875V15.125C12.6255 14.6428 12.7528 14.1691 12.9941 13.7516C13.2355 13.3341 13.5824 12.9874 14 12.7463V11C14 8.08262 15.1589 5.28473 17.2218 3.22183C19.2847 1.15893 22.0826 0 25 0C27.9174 0 30.7153 1.15893 32.7782 3.22183C34.8411 5.28473 36 8.08262 36 11V12.7463C36.4176 12.9874 36.7645 13.3341 37.0059 13.7516C37.2472 14.1691 37.3745 14.6428 37.375 15.125V17.875H34.625V15.125C34.2603 15.125 33.9106 14.9801 33.6527 14.7223C33.3949 14.4644 33.25 14.1147 33.25 13.75V11C33.25 8.81196 32.3808 6.71354 30.8336 5.16637C29.2865 3.61919 27.188 2.75 25 2.75C22.812 2.75 20.7135 3.61919 19.1664 5.16637C17.6192 6.71354 16.75 8.81196 16.75 11V13.75C16.75 14.1147 16.6051 14.4644 16.3473 14.7223C16.0894 14.9801 15.7397 15.125 15.375 15.125V17.875C15.7397 17.875 16.0894 18.0199 16.3473 18.2777C16.6051 18.5356 16.75 18.8853 16.75 19.25C16.753 20.8088 17.1977 22.3349 18.0324 23.6514C18.8671 24.9679 20.0577 26.0211 21.4663 26.6887C21.7002 26.8002 21.898 26.9755 22.0366 27.1944C22.1753 27.4134 22.2493 27.6671 22.25 27.9262V31.625C22.2509 31.9059 22.1657 32.1804 22.006 32.4115C21.8462 32.6426 21.6194 32.8192 21.3563 32.9175L10.3562 37.0425H10.205C8.39 37.5375 5.75 38.8025 5.75 39.875V41.25H23.625V44Z" fill="black"/>
<path d="M34.625 39.875C34.444 39.876 34.2647 39.8414 34.0971 39.7729C33.9296 39.7045 33.7772 39.6037 33.6488 39.4762C27.75 33.6325 27.75 29.0675 27.75 28.875C27.75 27.0516 28.4743 25.303 29.7636 24.0136C31.053 22.7243 32.8016 22 34.625 22C36.4484 22 38.197 22.7243 39.4864 24.0136C40.7757 25.303 41.5 27.0516 41.5 28.875C41.5 29.0675 41.5 33.6325 35.6012 39.4762C35.4728 39.6037 35.3204 39.7045 35.1529 39.7729C34.9853 39.8414 34.806 39.876 34.625 39.875ZM30.5 28.875C30.5 29.0125 30.6925 32.175 34.625 36.52C38.6125 32.0787 38.75 28.875 38.75 28.875C38.75 27.781 38.3154 26.7318 37.5418 25.9582C36.7682 25.1846 35.719 24.75 34.625 24.75C33.531 24.75 32.4818 25.1846 31.7082 25.9582C30.9346 26.7318 30.5 27.781 30.5 28.875Z" fill="#F19728"/>
<path d="M36 27.5H33.25V30.25H36V27.5Z" fill="black"/>
</svg>
