<svg width="52" height="52" viewBox="0 0 52 52" fill="none" xmlns="http://www.w3.org/2000/svg">
<path d="M49.5625 14.9013C49.5289 14.5334 49.4226 14.1759 49.2496 13.8495C49.0767 13.5231 48.8406 13.2343 48.555 13L47.0031 11.7C46.4287 11.2188 45.6867 10.9853 44.9402 11.0508C44.1937 11.1163 43.5037 11.4754 43.0219 12.0494L41.0719 14.365L38.1875 17.7937V9.61187C38.1869 8.96563 37.9297 8.34606 37.4725 7.88938L31.9231 2.34C31.4664 1.88275 30.8469 1.62557 30.2006 1.625H4.875C4.22853 1.625 3.60855 1.88181 3.15143 2.33893C2.69431 2.79605 2.4375 3.41603 2.4375 4.0625V47.9375C2.4375 48.584 2.69431 49.204 3.15143 49.6611C3.60855 50.1182 4.22853 50.375 4.875 50.375H35.75C36.3965 50.375 37.0165 50.1182 37.4736 49.6611C37.9307 49.204 38.1875 48.584 38.1875 47.9375V30.0625C38.185 29.9704 38.1658 29.8795 38.1306 29.7944L48.9044 16.965C49.1443 16.6811 49.326 16.3528 49.4389 15.9986C49.5518 15.6445 49.5938 15.2716 49.5625 14.9013V14.9013ZM36.5625 47.9375C36.5625 48.153 36.4769 48.3597 36.3245 48.512C36.1722 48.6644 35.9655 48.75 35.75 48.75H4.875C4.65951 48.75 4.45285 48.6644 4.30048 48.512C4.1481 48.3597 4.0625 48.153 4.0625 47.9375V4.0625C4.0625 3.84701 4.1481 3.64035 4.30048 3.48798C4.45285 3.3356 4.65951 3.25 4.875 3.25H30.0625V8.9375C30.0625 9.15299 30.1481 9.35965 30.3005 9.51202C30.4528 9.6644 30.6595 9.75 30.875 9.75H36.5625V19.5C36.5553 19.5621 36.5553 19.6248 36.5625 19.6869L26.1625 32.1263C26.085 32.2151 26.0293 32.3208 26 32.435C26 32.435 26 32.435 26 32.435L24.4319 39.0163C24.3966 39.1632 24.403 39.3171 24.4503 39.4607C24.4977 39.6042 24.5842 39.7317 24.7 39.8288C24.845 39.9528 25.0291 40.0218 25.22 40.0237C25.3314 40.0218 25.4415 39.9998 25.545 39.9588L31.7525 37.2613C31.8654 37.2113 31.9654 37.1363 32.045 37.0419L36.5625 31.6875V47.9375ZM31.3219 35.3925L27.9256 32.5488L41.795 16.0144L45.1912 18.8662L31.3219 35.3925Z" fill="#0E1839"/>
<path d="M17.875 11.375H26.8125C27.028 11.375 27.2347 11.2894 27.387 11.137C27.5394 10.9847 27.625 10.778 27.625 10.5625C27.625 10.347 27.5394 10.1403 27.387 9.98798C27.2347 9.8356 27.028 9.75 26.8125 9.75H17.875C17.6595 9.75 17.4528 9.8356 17.3005 9.98798C17.1481 10.1403 17.0625 10.347 17.0625 10.5625C17.0625 10.778 17.1481 10.9847 17.3005 11.137C17.4528 11.2894 17.6595 11.375 17.875 11.375Z" fill="#0E1839"/>
<path d="M17.0625 21.125H31.6875C31.903 21.125 32.1097 21.0394 32.262 20.887C32.4144 20.7347 32.5 20.528 32.5 20.3125C32.5 20.097 32.4144 19.8903 32.262 19.738C32.1097 19.5856 31.903 19.5 31.6875 19.5H17.0625C16.847 19.5 16.6403 19.5856 16.488 19.738C16.3356 19.8903 16.25 20.097 16.25 20.3125C16.25 20.528 16.3356 20.7347 16.488 20.887C16.6403 21.0394 16.847 21.125 17.0625 21.125Z" fill="#0E1839"/>
<path d="M25.1875 30.0625C25.1875 29.847 25.1019 29.6403 24.9495 29.488C24.7972 29.3356 24.5905 29.25 24.375 29.25H17.0625C16.847 29.25 16.6403 29.3356 16.488 29.488C16.3356 29.6403 16.25 29.847 16.25 30.0625C16.25 30.278 16.3356 30.4847 16.488 30.637C16.6403 30.7894 16.847 30.875 17.0625 30.875H24.375C24.5905 30.875 24.7972 30.7894 24.9495 30.637C25.1019 30.4847 25.1875 30.278 25.1875 30.0625Z" fill="#F19728"/>
<path d="M13.8125 26.8125H8.9375C8.72201 26.8125 8.51535 26.8981 8.36298 27.0505C8.2106 27.2028 8.125 27.4095 8.125 27.625V32.5C8.125 32.7155 8.2106 32.9222 8.36298 33.0745C8.51535 33.2269 8.72201 33.3125 8.9375 33.3125H13.8125C14.028 33.3125 14.2347 33.2269 14.387 33.0745C14.5394 32.9222 14.625 32.7155 14.625 32.5V27.625C14.625 27.4095 14.5394 27.2028 14.387 27.0505C14.2347 26.8981 14.028 26.8125 13.8125 26.8125ZM13 31.6875H9.75V28.4375H13V31.6875Z" fill="#0E1839"/>
<path d="M21.9375 39H17.0625C16.847 39 16.6403 39.0856 16.488 39.238C16.3356 39.3903 16.25 39.597 16.25 39.8125C16.25 40.028 16.3356 40.2347 16.488 40.387C16.6403 40.5394 16.847 40.625 17.0625 40.625H21.9375C22.153 40.625 22.3597 40.5394 22.512 40.387C22.6644 40.2347 22.75 40.028 22.75 39.8125C22.75 39.597 22.6644 39.3903 22.512 39.238C22.3597 39.0856 22.153 39 21.9375 39Z" fill="#F19728"/>
<path d="M13.8125 36.5625H8.9375C8.72201 36.5625 8.51535 36.6481 8.36298 36.8005C8.2106 36.9528 8.125 37.1595 8.125 37.375V42.25C8.125 42.4655 8.2106 42.6722 8.36298 42.8245C8.51535 42.9769 8.72201 43.0625 8.9375 43.0625H13.8125C14.028 43.0625 14.2347 42.9769 14.387 42.8245C14.5394 42.6722 14.625 42.4655 14.625 42.25V37.375C14.625 37.1595 14.5394 36.9528 14.387 36.8005C14.2347 36.6481 14.028 36.5625 13.8125 36.5625ZM13 41.4375H9.75V38.1875H13V41.4375Z" fill="#0E1839"/>
<path d="M10.7979 23.3271C10.8738 23.4024 10.9639 23.462 11.0628 23.5024C11.1618 23.5429 11.2678 23.5634 11.3748 23.5627H11.5048C11.6312 23.5416 11.7509 23.4908 11.854 23.4146C11.9571 23.3383 12.0407 23.2387 12.0979 23.124L14.5354 18.249C14.593 18.1532 14.6302 18.0467 14.6448 17.9359C14.6593 17.8251 14.6509 17.7125 14.62 17.6052C14.589 17.4978 14.5363 17.398 14.465 17.3119C14.3938 17.2258 14.3055 17.1554 14.2058 17.105C14.1061 17.0546 13.9971 17.0253 13.8855 17.0189C13.774 17.0125 13.6623 17.0292 13.5575 17.068C13.4527 17.1067 13.357 17.1666 13.2764 17.244C13.1959 17.3214 13.1321 17.4146 13.0891 17.5177L11.1554 21.3852L9.53039 19.7602C9.45464 19.6845 9.3647 19.6244 9.26572 19.5834C9.16674 19.5424 9.06066 19.5213 8.95352 19.5213C8.84638 19.5213 8.7403 19.5424 8.64132 19.5834C8.54234 19.6244 8.4524 19.6845 8.37665 19.7602C8.30089 19.836 8.2408 19.9259 8.1998 20.0249C8.1588 20.1239 8.1377 20.23 8.1377 20.3371C8.1377 20.4442 8.1588 20.5503 8.1998 20.6493C8.2408 20.7483 8.30089 20.8382 8.37665 20.914L10.7979 23.3271Z" fill="#F19728"/>
<path d="M10.7979 13.5771C10.8738 13.6524 10.9639 13.712 11.0628 13.7524C11.1618 13.7929 11.2678 13.8134 11.3748 13.8127H11.5048C11.6312 13.7916 11.7509 13.7408 11.854 13.6646C11.9571 13.5883 12.0407 13.4887 12.0979 13.374L14.5354 8.49899C14.593 8.40325 14.6302 8.29666 14.6448 8.18589C14.6593 8.07511 14.6509 7.96252 14.62 7.85516C14.589 7.74779 14.5363 7.64796 14.465 7.5619C14.3938 7.47585 14.3055 7.40541 14.2058 7.35499C14.1061 7.30458 13.9971 7.27527 13.8855 7.2689C13.774 7.26253 13.6623 7.27923 13.5575 7.31797C13.4527 7.35671 13.357 7.41664 13.2764 7.49403C13.1959 7.57142 13.1321 7.66459 13.0891 7.76774L11.1554 11.6352L9.53039 10.0102C9.3774 9.85724 9.16989 9.77129 8.95352 9.77129C8.73715 9.77129 8.52964 9.85724 8.37665 10.0102C8.22365 10.1632 8.1377 10.3707 8.1377 10.5871C8.1377 10.8035 8.22365 11.011 8.37665 11.164L10.7979 13.5771Z" fill="#F19728"/>
</svg>
