<svg width="54" height="54" viewBox="0 0 54 54" fill="none" xmlns="http://www.w3.org/2000/svg">
<path d="M48.9375 12.6563H48.0938V7.59375H37.6566C35.7556 3.60956 31.7005 0.84375 27 0.84375C22.2995 0.84375 18.2444 3.60956 16.3434 7.59375H5.90625V12.6563H5.0625C2.73628 12.6563 0.84375 14.5488 0.84375 16.875V43.875C0.84375 46.2012 2.73628 48.0938 5.0625 48.0938H16.0313V51.4688H12.6563V53.1563H41.3438V51.4688H37.9688V48.0938H48.9375C51.2637 48.0938 53.1563 46.2012 53.1563 43.875V16.875C53.1563 14.5488 51.2637 12.6563 48.9375 12.6563ZM7.59375 27.8438H46.4063V36.2813H7.59375V27.8438ZM36.7917 10.125H34.1533C33.0294 10.125 31.9739 9.68709 31.1799 8.89312L30.7631 8.47631C29.6511 7.36341 28.1711 6.75 26.5958 6.75C25.0695 6.75 23.6604 5.92144 22.9196 4.58747C22.7391 4.26262 22.6387 3.90825 22.6133 3.54544C23.9431 2.9025 25.4273 2.53125 27 2.53125C31.7081 2.53125 35.6636 5.76534 36.7917 10.125ZM21.0735 4.46428C21.1621 4.78912 21.2777 5.10638 21.4448 5.40675C22.4834 7.2765 24.4569 8.4375 26.5958 8.4375C27.7197 8.4375 28.7752 8.87541 29.5692 9.66937L29.986 10.0862C31.0989 11.1991 32.5789 11.8125 34.1542 11.8125H37.0828C37.1056 12.0918 37.125 12.3711 37.125 12.6563C37.125 13.2612 37.0617 13.8502 36.9596 14.4264C35.9083 13.8248 34.7136 13.5 33.4901 13.5C31.763 13.5 30.2324 14.5361 29.5912 16.1401C29.2081 17.0994 28.2926 17.7188 27.2599 17.7188H26.4161C24.9126 17.7188 23.5153 18.5296 22.7703 19.8349L22.0354 21.1207C21.9856 21.2077 21.9468 21.2996 21.8995 21.3882C21.4178 21.1056 20.9562 20.7908 20.5293 20.4348L21.1672 18.9996C21.9679 17.1965 23.7608 16.0313 25.7344 16.0313C27.3628 16.0313 28.6875 14.7066 28.6875 13.0781C28.6875 11.4497 27.3628 10.125 25.7344 10.125H24.6248C23.1643 10.125 21.7806 9.48881 20.8297 8.37928L19.1624 6.43528C19.1396 6.40828 19.1118 6.38213 19.0882 6.35513C19.6611 5.63794 20.3302 5.00428 21.0735 4.46428ZM36.493 16.1443C35.0671 20.0112 31.3563 22.7813 27 22.7813C25.7386 22.7813 24.5346 22.5391 23.42 22.1155C23.4487 22.0632 23.4706 22.0084 23.5001 21.9569L24.2342 20.6719C24.6797 19.8914 25.5167 19.4063 26.4153 19.4063H27.259C28.9862 19.4063 30.5168 18.3701 31.158 16.7662C31.5419 15.8068 32.4574 15.1875 33.4901 15.1875C34.5684 15.1875 35.6088 15.5351 36.493 16.1443ZM18.1153 7.80638L19.548 9.47784C20.8204 10.9612 22.6699 11.8125 24.6248 11.8125H25.7344C26.4322 11.8125 27 12.3803 27 13.0781C27 13.7759 26.4322 14.3438 25.7344 14.3438C23.0951 14.3438 20.6963 15.9022 19.6239 18.3153L19.2493 19.1582C17.7702 17.3973 16.875 15.1301 16.875 12.6563C16.875 10.9004 17.3256 9.2475 18.1153 7.80638ZM15.6853 9.28125C15.3647 10.352 15.1875 11.4834 15.1875 12.6563C15.1875 19.17 20.4863 24.4688 27 24.4688C33.5138 24.4688 38.8125 19.17 38.8125 12.6563C38.8125 11.4834 38.6353 10.352 38.3147 9.28125H46.4063V26.1563H7.59375V9.28125H15.6853ZM5.0625 14.3438H5.90625V37.9688H48.0938V14.3438H48.9375C50.3331 14.3438 51.4688 15.4794 51.4688 16.875V39.6563H2.53125V16.875C2.53125 15.4794 3.66694 14.3438 5.0625 14.3438ZM36.2813 51.4688H17.7188V48.0938H36.2813V51.4688ZM48.9375 46.4063H5.0625C3.66694 46.4063 2.53125 45.2706 2.53125 43.875V41.3438H51.4688V43.875C51.4688 45.2706 50.3331 46.4063 48.9375 46.4063Z" fill="black"/>
<path d="M23.625 43.0312H21.9375V44.7188H23.625V43.0312Z" fill="black"/>
<path d="M28.6875 43.0312H25.3125V44.7188H28.6875V43.0312Z" fill="black"/>
<path d="M32.0625 43.0312H30.375V44.7188H32.0625V43.0312Z" fill="black"/>
<path d="M14.3438 29.5312H12.6562V31.2188H9.28125V32.9062H12.6562V34.5938H14.3438V32.9062H44.7188V31.2188H14.3438V29.5312Z" fill="#F19728"/>
<path d="M44.7188 10.9688H43.0312V12.6562H44.7188V10.9688Z" fill="black"/>
<path d="M10.9688 10.9688H9.28125V12.6562H10.9688V10.9688Z" fill="black"/>
</svg>
