<svg width="45" height="45" viewBox="0 0 45 45" fill="none" xmlns="http://www.w3.org/2000/svg">
<path d="M40.7812 0H4.21875C3.09987 0 2.02681 0.444474 1.23564 1.23564C0.444474 2.02681 0 3.09987 0 4.21875L0 35.1562C0 36.2751 0.444474 37.3482 1.23564 38.1394C2.02681 38.9305 3.09987 39.375 4.21875 39.375H7.03125C7.40421 39.375 7.7619 39.2268 8.02562 38.9631C8.28934 38.6994 8.4375 38.3417 8.4375 37.9688C8.4375 37.5958 8.28934 37.2381 8.02562 36.9744C7.7619 36.7107 7.40421 36.5625 7.03125 36.5625H4.21875C3.84579 36.5625 3.4881 36.4143 3.22438 36.1506C2.96066 35.8869 2.8125 35.5292 2.8125 35.1562V11.25H42.1875V35.1562C42.1875 35.5292 42.0393 35.8869 41.7756 36.1506C41.5119 36.4143 41.1542 36.5625 40.7812 36.5625H37.9688C37.5958 36.5625 37.2381 36.7107 36.9744 36.9744C36.7107 37.2381 36.5625 37.5958 36.5625 37.9688C36.5625 38.3417 36.7107 38.6994 36.9744 38.9631C37.2381 39.2268 37.5958 39.375 37.9688 39.375H40.7812C41.9001 39.375 42.9732 38.9305 43.7644 38.1394C44.5555 37.3482 45 36.2751 45 35.1562V4.21875C45 3.09987 44.5555 2.02681 43.7644 1.23564C42.9732 0.444474 41.9001 0 40.7812 0V0ZM2.8125 8.4375V4.21875C2.8125 3.84579 2.96066 3.4881 3.22438 3.22438C3.4881 2.96066 3.84579 2.8125 4.21875 2.8125H40.7812C41.1542 2.8125 41.5119 2.96066 41.7756 3.22438C42.0393 3.4881 42.1875 3.84579 42.1875 4.21875V8.4375H2.8125Z" fill="#0E1839"/>
<path d="M37.9688 16.875H35.1562C34.7833 16.875 34.4256 16.7268 34.1619 16.4631C33.8982 16.1994 33.75 15.8417 33.75 15.4688C33.75 15.0958 33.8982 14.7381 34.1619 14.4744C34.4256 14.2107 34.7833 14.0625 35.1562 14.0625H37.9688C38.3417 14.0625 38.6994 14.2107 38.9631 14.4744C39.2268 14.7381 39.375 15.0958 39.375 15.4688C39.375 15.8417 39.2268 16.1994 38.9631 16.4631C38.6994 16.7268 38.3417 16.875 37.9688 16.875Z" fill="#0E1839"/>
<path d="M9.84375 22.5H7.03125C6.65829 22.5 6.3006 22.3518 6.03688 22.0881C5.77316 21.8244 5.625 21.4667 5.625 21.0938C5.625 20.7208 5.77316 20.3631 6.03688 20.0994C6.3006 19.8357 6.65829 19.6875 7.03125 19.6875H9.84375C10.2167 19.6875 10.5744 19.8357 10.8381 20.0994C11.1018 20.3631 11.25 20.7208 11.25 21.0938C11.25 21.4667 11.1018 21.8244 10.8381 22.0881C10.5744 22.3518 10.2167 22.5 9.84375 22.5Z" fill="#0E1839"/>
<path d="M9.84375 16.875H7.03125C6.65829 16.875 6.3006 16.7268 6.03688 16.4631C5.77316 16.1994 5.625 15.8417 5.625 15.4688C5.625 15.0958 5.77316 14.7381 6.03688 14.4744C6.3006 14.2107 6.65829 14.0625 7.03125 14.0625H9.84375C10.2167 14.0625 10.5744 14.2107 10.8381 14.4744C11.1018 14.7381 11.25 15.0958 11.25 15.4688C11.25 15.8417 11.1018 16.1994 10.8381 16.4631C10.5744 16.7268 10.2167 16.875 9.84375 16.875Z" fill="#0E1839"/>
<path d="M22.5001 45C19.7607 44.9995 17.1156 43.9995 15.0611 42.1875H11.2501C11.0104 42.1868 10.7749 42.1248 10.5659 42.0074C10.3568 41.89 10.1813 41.7212 10.0559 41.5169C9.9305 41.3126 9.85941 41.0796 9.84938 40.8401C9.83934 40.6006 9.8907 40.3625 9.99858 40.1484L11.672 36.7875C11.3922 35.7993 11.2502 34.7771 11.2501 33.75C11.2501 31.525 11.9099 29.3499 13.1461 27.4998C14.3823 25.6498 16.1393 24.2078 18.195 23.3564C20.2506 22.5049 22.5126 22.2821 24.6949 22.7162C26.8772 23.1503 28.8818 24.2217 30.4551 25.7951C32.0284 27.3684 33.0999 29.373 33.534 31.5552C33.9681 33.7375 33.7453 35.9995 32.8938 38.0552C32.0423 40.1109 30.6004 41.8679 28.7503 43.104C26.9003 44.3402 24.7252 45 22.5001 45V45ZM13.5283 39.375H15.6236C15.8046 39.3729 15.9842 39.408 16.1511 39.4782C16.318 39.5483 16.4687 39.652 16.5939 39.7828C17.9851 41.1465 19.8054 41.9868 21.7457 42.1609C23.6861 42.3351 25.6269 41.8325 27.2388 40.7384C28.8506 39.6443 30.0343 38.0262 30.5887 36.1586C31.1431 34.291 31.0343 32.2891 30.2805 30.4927C29.5268 28.6963 28.1746 27.2161 26.4536 26.3033C24.7326 25.3905 22.7487 25.1013 20.8387 25.4849C18.9287 25.8685 17.2103 26.9013 15.9752 28.4078C14.7401 29.9143 14.0643 31.8019 14.0626 33.75C14.0656 34.673 14.2176 35.5895 14.5126 36.4641C14.5732 36.6402 14.5982 36.8266 14.5861 37.0125C14.5741 37.1984 14.5252 37.38 14.4423 37.5469L13.5283 39.375Z" fill="#0E1839"/>
<path d="M25.3125 32.3438H23.9063V30.9375C23.9063 30.5645 23.7581 30.2069 23.4944 29.9431C23.2306 29.6794 22.873 29.5312 22.5 29.5312C22.127 29.5312 21.7694 29.6794 21.5056 29.9431C21.2419 30.2069 21.0938 30.5645 21.0938 30.9375V32.3438H19.6875C19.3145 32.3438 18.9569 32.4919 18.6931 32.7556C18.4294 33.0194 18.2812 33.377 18.2812 33.75C18.2812 34.123 18.4294 34.4806 18.6931 34.7444C18.9569 35.0081 19.3145 35.1563 19.6875 35.1563H21.0938V36.5625C21.0938 36.9355 21.2419 37.2931 21.5056 37.5569C21.7694 37.8206 22.127 37.9688 22.5 37.9688C22.873 37.9688 23.2306 37.8206 23.4944 37.5569C23.7581 37.2931 23.9063 36.9355 23.9063 36.5625V35.1563H25.3125C25.6855 35.1563 26.0431 35.0081 26.3069 34.7444C26.5706 34.4806 26.7188 34.123 26.7188 33.75C26.7188 33.377 26.5706 33.0194 26.3069 32.7556C26.0431 32.4919 25.6855 32.3438 25.3125 32.3438Z" fill="#F19728"/>
</svg>
