<svg width="18" height="18" viewBox="0 0 18 18" fill="none" xmlns="http://www.w3.org/2000/svg">
<path d="M14.9997 12.1501C15.5881 11.7429 16.0318 11.1594 16.2669 10.4836C16.5019 9.80788 16.5162 9.0749 16.3075 8.39053C16.0989 7.70616 15.6781 7.1058 15.106 6.67613C14.5339 6.24647 13.8401 6.00972 13.1247 6.00008H11.7747C11.548 5.23528 11.15 4.53221 10.6109 3.94424C10.0718 3.35628 9.40587 2.89889 8.66358 2.6068C7.92129 2.31472 7.1222 2.19562 6.327 2.25855C5.5318 2.32149 4.76139 2.5648 4.07429 2.97002C3.38719 3.37523 2.80146 3.93169 2.36158 4.59713C1.92171 5.26258 1.63925 6.01951 1.53566 6.81044C1.43208 7.60137 1.51009 8.40551 1.76377 9.16179C2.01745 9.91806 2.44013 10.6066 2.99971 11.1751" stroke="white" stroke-linecap="round" stroke-linejoin="round"/>
<path d="M9 9V15.75" stroke="white" stroke-linecap="round" stroke-linejoin="round"/>
<path d="M6 12.75L9 15.75L12 12.75" stroke="white" stroke-linecap="round" stroke-linejoin="round"/>
</svg>
