<svg width="22" height="22" viewBox="0 0 22 22" fill="none" xmlns="http://www.w3.org/2000/svg">
<path d="M6.41671 20.1663H3.66671C3.18048 20.1663 2.71416 19.9732 2.37034 19.6294C2.02653 19.2856 1.83337 18.8192 1.83337 18.333V11.9163C1.83337 11.4301 2.02653 10.9638 2.37034 10.62C2.71416 10.2762 3.18048 10.083 3.66671 10.083H6.41671M12.8334 8.24967V4.58301C12.8334 3.85366 12.5436 3.15419 12.0279 2.63846C11.5122 2.12274 10.8127 1.83301 10.0834 1.83301L6.41671 10.083V20.1663H16.7567C17.1988 20.1713 17.6279 20.0164 17.9648 19.73C18.3017 19.4436 18.5237 19.0452 18.59 18.608L19.855 10.358C19.8949 10.0953 19.8772 9.82697 19.8031 9.57174C19.729 9.31651 19.6003 9.08044 19.4259 8.8799C19.2515 8.67935 19.0356 8.51911 18.7931 8.41029C18.5507 8.30147 18.2875 8.24667 18.0217 8.24967H12.8334Z" stroke="#0E1839" stroke-width="1.5" stroke-linecap="round" stroke-linejoin="round"/>
</svg>
