<svg width="86" height="78" viewBox="0 0 86 78" fill="none" xmlns="http://www.w3.org/2000/svg">
<path d="M52.4114 25.4795H39.76C39.76 18.3452 33.9057 12.5444 26.7057 12.5444C19.5057 12.5444 13.6514 18.3452 13.6514 25.4795H1C1 11.4233 12.5286 0 26.7143 0C40.9 0 52.4286 11.4233 52.4286 25.4795H52.4114Z" fill="url(#paint0_linear_60_1313)"/>
<path d="M1 35.2466H2.90286V42.0581L6.35714 38.406H8.67143L5.37143 41.7523L8.8 46.6359H6.57143L4.06857 43.0688L2.90286 44.2748V46.6359H1.00857V35.2466H1Z" fill="#0E1839"/>
<path d="M14.8329 46.6275V45.6083C14.2672 46.2878 13.4015 46.7973 12.1415 46.7973C10.5644 46.7973 9.17578 45.9056 9.17578 44.2239C9.17578 42.3979 10.6072 41.5231 12.5444 41.5231C13.5558 41.5231 14.1986 41.6675 14.8415 41.8628V41.7099C14.8415 40.5719 14.1129 39.9434 12.7844 39.9434C11.8586 39.9434 11.1558 40.1472 10.4015 40.453L9.88721 38.9412C10.8044 38.5335 11.6872 38.2617 13.0586 38.2617C15.5186 38.2617 16.7186 39.5357 16.7186 41.7439V46.6275H14.8329V46.619V46.6275ZM14.8844 43.1793C14.3958 42.9924 13.7186 42.8395 12.9815 42.8395C11.7815 42.8395 11.0786 43.3236 11.0786 44.1475C11.0786 44.9288 11.7901 45.362 12.6901 45.362C13.9501 45.362 14.8929 44.6571 14.8929 43.6294V43.1708H14.8844V43.1793Z" fill="#0E1839"/>
<path d="M18.0828 45.3366L22.8828 39.9349H18.2542V38.3892H25.3171V39.6886L20.5171 45.0902H25.3171V46.636H18.0828V45.3366H18.0742H18.0828Z" fill="#0E1839"/>
<path d="M32.0629 46.6275V45.6083C31.4972 46.2878 30.6315 46.7973 29.3715 46.7973C27.7943 46.7973 26.4058 45.9056 26.4058 44.2239C26.4058 42.3979 27.8372 41.5231 29.7743 41.5231C30.7858 41.5231 31.4286 41.6675 32.0715 41.8628V41.7099C32.0715 40.5719 31.3429 39.9434 30.0143 39.9434C29.0886 39.9434 28.3858 40.1472 27.6315 40.453L27.1172 38.9412C28.0343 38.5335 28.9172 38.2617 30.2886 38.2617C32.7486 38.2617 33.9486 39.5357 33.9486 41.7439V46.6275H32.0629V46.619V46.6275ZM32.1143 43.1793C31.6258 42.9924 30.9486 42.8395 30.2115 42.8395C29.0115 42.8395 28.3086 43.3236 28.3086 44.1475C28.3086 44.9288 29.02 45.362 29.92 45.362C31.18 45.362 32.1229 44.6571 32.1229 43.6294V43.1708H32.1143V43.1793Z" fill="#0E1839"/>
<path d="M36.0156 35.2466H37.9185V42.0581L41.3728 38.406H43.6871L40.3785 41.7608L43.8071 46.6444H41.6042L39.1013 43.0773L37.9356 44.2833V46.6444H36.0328V35.2466H36.0242H36.0156ZM44.9299 35.2466H46.8328V39.68C47.3728 38.8986 48.1442 38.2192 49.4299 38.2192C51.3156 38.2192 52.3956 39.4677 52.3956 41.3871V46.6359H50.4928V41.9647C50.4928 40.6907 49.8499 39.9518 48.7099 39.9518C47.5956 39.9518 46.8242 40.7162 46.8242 41.9901V46.6444H44.9213V35.2466H44.9299ZM53.7585 45.5573L54.6156 44.2833C55.5156 44.9627 56.5013 45.3025 57.3413 45.3025C58.1642 45.3025 58.6271 44.9627 58.6271 44.3852C58.6271 43.7737 57.8213 43.5614 56.9128 43.2811L56.767 43.2301C55.5413 42.8734 54.1699 42.3808 54.1699 40.7671C54.1699 39.2044 55.4813 38.2532 57.1356 38.2532C58.1642 38.2532 59.3128 38.6099 60.1956 39.1874L59.4413 40.5293C58.6356 40.0452 57.7871 39.7479 57.0928 39.7479C56.3556 39.7479 55.9271 40.0877 55.9271 40.5973C55.9271 41.1578 56.7328 41.4126 57.6413 41.7014L57.7956 41.7523C59.0128 42.126 60.3842 42.6696 60.3842 44.1899C60.3842 45.9225 59.0299 46.7803 57.2985 46.7803C56.0135 46.7608 54.7703 46.3253 53.7585 45.5403V45.5573ZM62.4156 44.3682V40.0367H61.3613V38.423H62.4156V36.1553H64.3185V38.423H66.547V40.0367H64.3185V44.0795C64.3185 44.8099 64.6956 45.0986 65.347 45.0986C65.7756 45.0986 66.1528 45.0137 66.5299 44.8184V46.3641C66.0054 46.6509 65.4146 46.7973 64.8156 46.7888C63.4099 46.7888 62.4156 46.1773 62.4156 44.3682Z" fill="#0E1839"/>
<path d="M73.2899 46.6275V45.6083C72.7242 46.2878 71.8585 46.7973 70.5985 46.7973C69.0214 46.7973 67.6328 45.9056 67.6328 44.2239C67.6328 42.3979 69.0642 41.5231 71.0014 41.5231C72.0128 41.5231 72.6557 41.6675 73.2985 41.8628V41.7099C73.2985 40.5719 72.5699 39.9434 71.2414 39.9434C70.3157 39.9434 69.6128 40.1472 68.8585 40.453L68.3442 38.9412C69.2614 38.5335 70.1442 38.2617 71.5157 38.2617C73.9757 38.2617 75.1757 39.5357 75.1757 41.7439V46.6275H73.2899V46.619V46.6275ZM73.3414 43.1793C72.8528 42.9924 72.1757 42.8395 71.4385 42.8395C70.2385 42.8395 69.5357 43.3236 69.5357 44.1475C69.5357 44.9288 70.2471 45.362 71.1471 45.362C72.4071 45.362 73.3499 44.6571 73.3499 43.6294V43.1708H73.3414V43.1793Z" fill="#0E1839"/>
<path d="M77.2429 38.3891H79.1457V39.6631C79.6857 38.8817 80.4572 38.2192 81.7429 38.2192C83.6286 38.2192 84.7086 39.4677 84.7086 41.3872V46.6359H82.8057V41.9647C82.8057 40.6907 82.1629 39.9518 81.0229 39.9518C79.9086 39.9518 79.1372 40.7162 79.1372 41.9902V46.6444H77.2343V38.4061L77.2429 38.3891ZM1 59.1973H3.1V61.3376H1V59.1973ZM5.17429 59.0614V54.7299H4.12V53.1162H5.17429V50.8485H7.08572V53.1162H9.31429V54.7299H7.08572V58.7727C7.08572 59.5031 7.46286 59.7918 8.11429 59.7918C8.54286 59.7918 8.92 59.7069 9.29714 59.5116V61.0573C8.77268 61.3441 8.18183 61.4905 7.58286 61.482C6.17714 61.482 5.18286 60.8705 5.18286 59.0614H5.17429ZM10.9429 53.0992H12.8457V54.9677C13.36 53.7362 14.3286 52.8869 15.7943 52.9548V54.9507H15.6829C14.0114 54.9507 12.8543 56.0294 12.8543 58.2121V61.3546H10.9429V53.1162V53.0992ZM22.0429 61.3376V60.3184C21.4771 60.9979 20.6114 61.5074 19.3514 61.5074C17.7743 61.5074 16.3857 60.6157 16.3857 58.934C16.3857 57.108 17.8171 56.2332 19.7543 56.2332C20.7657 56.2332 21.4086 56.3776 22.0514 56.5729V56.4201C22.0514 55.282 21.3229 54.6535 19.9943 54.6535C19.0686 54.6535 18.3657 54.8573 17.6114 55.1631L17.0971 53.6513C18.0871 53.1849 19.1726 52.9523 20.2686 52.9718C22.7286 52.9718 23.9286 54.2458 23.9286 56.454V61.3376H22.0429V61.3291V61.3376ZM22.0943 57.8809C21.4856 57.6558 20.8411 57.5408 20.1914 57.5411C18.9914 57.5411 18.2886 58.0253 18.2886 58.8491C18.2886 59.6305 19 60.0636 19.9 60.0636C21.16 60.0636 22.1029 59.3587 22.1029 58.331V57.8724H22.0943V57.8809ZM24.7086 53.0907H26.7657L28.9943 59.1464L31.2486 53.0907H33.2457L29.8429 61.397H28.1286L24.7 53.0907H24.7086ZM33.64 57.2099C33.64 54.8488 35.3286 52.9124 37.7029 52.9124C40.36 52.9124 41.6886 54.9762 41.6886 57.3458C41.6862 57.5246 41.6748 57.7032 41.6543 57.8809H35.5429C35.7486 59.2228 36.7086 59.9702 37.9429 59.9702C38.8686 59.9702 39.5371 59.6305 40.1971 58.985L41.3114 59.9702C40.5229 60.9044 39.4257 61.5159 37.9086 61.5159C35.5086 61.5244 33.64 59.7918 33.64 57.2099V57.2099ZM39.8114 56.6324C39.6829 55.4179 38.9543 54.4581 37.7029 54.4581C36.5371 54.4581 35.7143 55.3499 35.5429 56.6324H39.8114ZM43.4286 49.9228H45.3314V61.3206H43.4286V49.9398V49.9228Z" fill="#0E1839"/>
<path d="M8.668 75L8.657 68.411L5.434 73.977H5.159L1.936 68.433V75H1.386V67.3H1.859L5.302 73.251L8.745 67.3H9.207L9.218 75H8.668ZM14.9585 75.055C14.2032 75.055 13.5212 74.8863 12.9125 74.549C12.3039 74.2043 11.8235 73.735 11.4715 73.141C11.1269 72.547 10.9545 71.8833 10.9545 71.15C10.9545 70.4167 11.1269 69.753 11.4715 69.159C11.8235 68.565 12.3039 68.0993 12.9125 67.762C13.5212 67.4173 14.2032 67.245 14.9585 67.245C15.7139 67.245 16.3959 67.4137 17.0045 67.751C17.6132 68.0883 18.0899 68.554 18.4345 69.148C18.7865 69.742 18.9625 70.4093 18.9625 71.15C18.9625 71.8907 18.7865 72.558 18.4345 73.152C18.0899 73.746 17.6132 74.2117 17.0045 74.549C16.3959 74.8863 15.7139 75.055 14.9585 75.055ZM14.9585 74.538C15.6039 74.538 16.1869 74.3913 16.7075 74.098C17.2282 73.8047 17.6389 73.4013 17.9395 72.888C18.2402 72.3673 18.3905 71.788 18.3905 71.15C18.3905 70.512 18.2402 69.9363 17.9395 69.423C17.6389 68.9023 17.2282 68.4953 16.7075 68.202C16.1869 67.9087 15.6039 67.762 14.9585 67.762C14.3132 67.762 13.7265 67.9087 13.1985 68.202C12.6779 68.4953 12.2672 68.9023 11.9665 69.423C11.6659 69.9363 11.5155 70.512 11.5155 71.15C11.5155 71.788 11.6659 72.3673 11.9665 72.888C12.2672 73.4013 12.6779 73.8047 13.1985 74.098C13.7265 74.3913 14.3132 74.538 14.9585 74.538ZM27.3446 74.494V76.76H26.8056V75H19.7656L19.7546 76.76H19.2156L19.2266 74.494H19.6446C20.1506 74.45 20.5026 74.0247 20.7006 73.218C20.906 72.4113 21.0306 71.282 21.0746 69.83L21.1516 67.3H26.1566V74.494H27.3446ZM21.5916 69.874C21.5476 71.1207 21.4486 72.14 21.2946 72.932C21.148 73.724 20.895 74.2447 20.5356 74.494H25.5956V67.806H21.6576L21.5916 69.874ZM34.6391 67.3L31.0861 73.878C30.8588 74.3033 30.5874 74.6187 30.2721 74.824C29.9641 75.0293 29.6341 75.132 29.2821 75.132C29.0108 75.132 28.7174 75.066 28.4021 74.934L28.5781 74.472C28.8274 74.5747 29.0621 74.626 29.2821 74.626C29.8028 74.626 30.2354 74.3363 30.5801 73.757L30.8441 73.306L27.6871 67.3H28.3031L31.1521 72.778L34.0561 67.3H34.6391ZM41.4416 67.3V75H40.8806V67.806H36.8986L36.7996 70.633C36.7556 71.689 36.664 72.5397 36.5246 73.185C36.3926 73.823 36.1946 74.296 35.9306 74.604C35.6666 74.912 35.3183 75.066 34.8856 75.066C34.6876 75.066 34.5043 75.044 34.3356 75L34.4016 74.483C34.5263 74.5123 34.6473 74.527 34.7646 74.527C35.102 74.527 35.3733 74.3987 35.5786 74.142C35.7913 73.878 35.9526 73.4637 36.0626 72.899C36.1726 72.3343 36.246 71.5827 36.2826 70.644L36.3926 67.3H41.4416ZM46.9774 70.116C47.8867 70.116 48.5761 70.3177 49.0454 70.721C49.5221 71.1243 49.7604 71.722 49.7604 72.514C49.7604 73.328 49.5074 73.9477 49.0014 74.373C48.5027 74.791 47.7804 75 46.8344 75H43.8864V67.3H44.4474V70.116H46.9774ZM46.8454 74.527C47.6154 74.527 48.1984 74.3583 48.5944 74.021C48.9904 73.6837 49.1884 73.185 49.1884 72.525C49.1884 71.2343 48.4074 70.589 46.8454 70.589H44.4474V74.527H46.8454ZM58.6027 67.806H54.4007V75H53.8397V67.3H58.6027V67.806ZM59.7616 67.3H60.3226V74.054L65.5696 67.3H66.0646V75H65.5036V68.257L60.2566 75H59.7616V67.3ZM75.2221 74.494V76.76H74.6831V75H67.6431L67.6321 76.76H67.0931L67.1041 74.494H67.5221C68.0281 74.45 68.3801 74.0247 68.5781 73.218C68.7835 72.4113 68.9081 71.282 68.9521 69.83L69.0291 67.3H74.0341V74.494H75.2221ZM69.4691 69.874C69.4251 71.1207 69.3261 72.14 69.1721 72.932C69.0255 73.724 68.7725 74.2447 68.4131 74.494H73.4731V67.806H69.5351L69.4691 69.874ZM79.7776 70.116C80.6869 70.116 81.3762 70.3177 81.8456 70.721C82.3222 71.1243 82.5606 71.722 82.5606 72.514C82.5606 73.328 82.3076 73.9477 81.8016 74.373C81.3029 74.791 80.5806 75 79.6346 75H76.6866V67.3H77.2476V70.116H79.7776ZM79.6456 74.527C80.4156 74.527 80.9986 74.3583 81.3946 74.021C81.7906 73.6837 81.9886 73.185 81.9886 72.525C81.9886 71.2343 81.2076 70.589 79.6456 70.589H77.2476V74.527H79.6456ZM83.9796 67.3H84.5406V75H83.9796V67.3Z" fill="#034DB4"/>
<defs>
<linearGradient id="paint0_linear_60_1313" x1="26.7143" y1="0.254795" x2="26.7143" y2="25.6493" gradientUnits="userSpaceOnUse">
<stop stop-color="#FFEE25"/>
<stop offset="1" stop-color="#E2312D"/>
</linearGradient>
</defs>
</svg>
