<svg width="442" height="263" viewBox="0 0 442 263" fill="none" xmlns="http://www.w3.org/2000/svg">
<path d="M414.981 261.1C440.364 239.436 440.929 166.701 427.052 145.298C403.561 109.083 391.055 116.043 370.478 94.7709C354.578 78.3272 375.133 30.9755 326.607 10.1381C268.989 -14.6144 216.895 12.161 190.664 24.8417C164.41 37.5225 141.92 37.4572 126.194 33.8248C99.9189 27.7346 61.4416 38.0663 27.7494 83.4169C2.38789 117.566 -4.83341 174.401 20.7674 236.239C27.6407 252.835 42.2573 261.731 42.2573 261.731L414.981 261.1Z" fill="#034DB4"/>
<path d="M95.3717 260.23C93.8491 258.621 81.8861 236.239 73.599 247.767C73.599 247.767 56.5463 210.703 39.4066 217.055C39.4066 217.055 27.5524 224.994 35.4914 241.416C35.4914 241.416 13.523 242.938 13.8493 260.23H95.3717Z" fill="#2868C0"/>
<path d="M55.8083 227.8C55.8518 227.8 55.9171 227.778 55.9388 227.735C56.0041 227.648 55.9823 227.539 55.9171 227.474C55.7431 227.321 51.5451 223.907 47.6952 223.428C47.5865 223.406 47.4995 223.493 47.4995 223.58C47.4777 223.689 47.5647 223.776 47.6517 223.776C51.3929 224.255 55.6343 227.713 55.6778 227.735C55.7431 227.778 55.7866 227.8 55.8083 227.8Z" fill="black"/>
<path d="M55.808 229.952C55.8515 229.952 55.9167 229.93 55.9385 229.887C56.0037 229.8 55.982 229.691 55.9167 229.626C55.895 229.604 53.0021 227.19 49.3479 226.081C49.2609 226.059 49.1522 226.102 49.1304 226.211C49.1087 226.32 49.1522 226.407 49.2609 226.45C52.8498 227.538 55.6775 229.909 55.721 229.93C55.7427 229.93 55.7862 229.952 55.808 229.952Z" fill="black"/>
<path d="M318.738 261.014C319.739 260.209 336.182 218.948 347.058 234.065C347.058 234.065 363.349 188.257 385.709 190.868C408.069 193.478 389.124 234.565 389.124 234.565C389.124 234.565 408.265 226.713 403.828 247.463C403.828 247.463 428.189 243.026 426.383 260.557L318.738 261.014Z" fill="#2868C0"/>
<path d="M388.273 238.632C388.208 238.61 388.164 238.588 388.121 238.523C388.055 238.414 388.077 238.262 388.186 238.197C388.382 238.066 393.015 234.999 397.082 235.891C397.213 235.913 397.278 236.043 397.256 236.174C397.234 236.304 397.104 236.37 396.973 236.348C393.102 235.499 388.469 238.545 388.425 238.588C388.382 238.632 388.316 238.653 388.273 238.632Z" fill="black"/>
<path d="M391.386 238.98C391.321 238.958 391.277 238.936 391.234 238.871C391.169 238.762 391.19 238.61 391.299 238.545C391.386 238.48 393.54 237.109 397.324 237.327C397.455 237.327 397.542 237.435 397.542 237.566C397.542 237.696 397.433 237.783 397.302 237.783C393.648 237.566 391.582 238.893 391.56 238.915C391.517 238.98 391.451 239.002 391.386 238.98Z" fill="black"/>
<path d="M333.309 248.029C333.244 248.029 333.201 248.007 333.157 247.964C333.07 247.877 333.07 247.725 333.157 247.638C333.331 247.464 337.203 243.505 341.379 243.505C341.509 243.505 341.618 243.614 341.618 243.744C341.618 243.875 341.509 243.983 341.379 243.983C337.42 243.983 333.549 247.942 333.505 247.986C333.418 248.007 333.353 248.029 333.309 248.029Z" fill="black"/>
<path d="M336.429 247.702C336.363 247.702 336.32 247.68 336.255 247.637C336.168 247.55 336.168 247.398 336.255 247.311C336.32 247.224 338.125 245.418 341.888 244.853C342.019 244.831 342.127 244.918 342.149 245.049C342.171 245.179 342.084 245.288 341.953 245.31C338.343 245.853 336.603 247.615 336.581 247.637C336.559 247.68 336.494 247.702 336.429 247.702Z" fill="black"/>
<path d="M442 260.165H0V262.275H442V260.165Z" fill="#0E1839"/>
<path d="M97.0304 70.5838C75.0837 70.5838 53.8548 85.8747 57.2915 119.393C59.5318 141.296 97.0304 180.469 97.0304 180.469C97.0304 180.469 135.094 141.992 136.769 119.393C139.488 82.9818 118.977 70.5838 97.0304 70.5838ZM97.0304 132.443C84.5019 132.443 74.3442 122.286 74.3442 109.757C74.3442 97.2286 84.5019 87.071 97.0304 87.071C109.559 87.071 119.717 97.2286 119.717 109.757C119.717 122.307 109.559 132.443 97.0304 132.443Z" fill="white"/>
<path d="M97.0294 181.774L96.3769 181.1C96.3334 181.057 92.0484 176.685 86.3932 170.16C86.067 169.768 86.1105 169.202 86.4802 168.854C86.8717 168.528 87.4373 168.572 87.7853 168.941C92.1137 173.944 95.6374 177.664 97.0294 179.121C99.5308 176.533 108.731 166.832 117.497 155.282C117.802 154.869 118.389 154.803 118.78 155.108C119.194 155.412 119.259 156 118.954 156.391C108.666 169.92 97.7907 180.97 97.6819 181.078L97.0294 181.774ZM133.245 132.704C133.114 132.704 132.984 132.683 132.875 132.617C132.418 132.4 132.201 131.856 132.418 131.399C134.463 126.81 135.615 122.743 135.877 119.306C137.073 103.21 133.788 90.8775 126.132 82.6339C117.584 73.4333 105.599 71.4974 97.0512 71.4974C96.5509 71.4974 96.1376 71.0842 96.1376 70.5839C96.1376 70.0836 96.5509 69.6703 97.0512 69.6703C105.969 69.6703 118.498 71.6932 127.502 81.3941C135.528 90.0292 138.965 102.84 137.725 119.458C137.464 123.112 136.246 127.397 134.115 132.161C133.919 132.509 133.593 132.704 133.245 132.704ZM110.602 128.855C110.319 128.855 110.036 128.724 109.862 128.485C109.558 128.071 109.645 127.506 110.036 127.201C115.583 123.047 118.759 116.696 118.759 109.779C118.759 109.279 119.172 108.865 119.672 108.865C120.172 108.865 120.586 109.279 120.586 109.779C120.586 117.283 117.127 124.178 111.124 128.681C110.993 128.789 110.798 128.855 110.602 128.855ZM80.999 126.723C80.7597 126.723 80.5205 126.636 80.3465 126.462C75.8875 122.003 73.4297 116.087 73.4297 109.779C73.4297 96.772 84.0224 86.1793 97.0294 86.1793C97.5297 86.1793 97.9429 86.5926 97.9429 87.0928C97.9429 87.5931 97.5297 88.0064 97.0294 88.0064C85.0229 88.0064 75.2785 97.7725 75.2785 109.757C75.2785 115.565 77.5406 121.024 81.6515 125.135C82.0213 125.505 82.0213 126.07 81.6515 126.44C81.4558 126.636 81.2165 126.723 80.999 126.723Z" fill="#21111D"/>
<path d="M253.072 61.6878C292.18 52.7917 301.49 48.8112 305.405 51.0298C310.038 53.6617 326.482 113.868 325.873 117.522C325.264 121.177 291.985 131.486 291.985 131.486C280.087 125.548 244.133 75.4779 243.85 72.585C243.35 67.2343 240.392 64.5589 253.072 61.6878Z" fill="#FEDB69"/>
<path d="M230.034 254.119L244.346 255.424L246.303 250.617L246.282 235.435L229.664 236.261L230.034 254.119Z" fill="#FE9F73"/>
<path d="M371.371 227.561L369.674 220.927L372.632 211.574L371.436 210.9L356.602 207.659L353.861 224.081L371.371 227.561Z" fill="#FE9F73"/>
<path d="M245.001 133.596L237.953 144.994L222.619 169.768C222.619 169.768 217.138 180.426 219.139 191.997C221.14 203.569 227.687 246.375 227.687 246.375C227.687 246.375 240.607 247.44 248.568 246.005C248.568 246.005 247.589 196.761 247.611 191.541C247.654 186.32 270.819 150.518 272.32 148.757L284.283 191.475C284.283 191.475 290.286 214.575 301.531 215.728C312.776 216.88 355.104 227.364 355.104 227.364C355.104 227.364 360.259 212.769 358.953 204.482L319.693 192.976C319.693 192.976 309.818 147.691 306.099 134.423C302.379 121.133 270.884 122.851 270.884 122.851L245.001 133.596Z" fill="#212122"/>
<path d="M306.97 149.583C301.119 149.583 297.509 146.451 295.421 143.58C292.832 140.035 292.027 136.272 292.006 136.098C291.962 135.945 292.071 135.771 292.245 135.75C292.397 135.706 292.571 135.815 292.593 135.989C292.593 136.032 293.398 139.795 295.921 143.254C299.27 147.843 303.925 149.692 309.733 148.757C309.907 148.735 310.059 148.844 310.081 148.996C310.102 149.17 309.994 149.322 309.841 149.344C308.819 149.496 307.884 149.583 306.97 149.583Z" fill="black"/>
<path d="M242.435 112.106C242.435 112.106 234.474 126.897 231.146 129.681C227.819 132.487 190.951 132.574 190.951 132.574L190.668 121.198L220.641 116.261L229.298 102.079L242.435 112.106Z" fill="#FE9F73"/>
<path d="M177.968 133.314C177.794 132.77 178.098 132.161 178.642 131.944L182.013 130.617C182.122 130.573 182.187 130.465 182.187 130.356C182.187 130.182 182.013 130.073 181.861 130.117L176.684 131.4C176.097 131.552 175.575 131.161 175.553 130.552C175.532 129.943 175.988 129.312 176.576 129.181L181.861 127.854C181.992 127.833 182.079 127.702 182.057 127.593V127.506C182.057 127.354 181.926 127.245 181.774 127.245L175.727 127.528C175.14 127.55 174.618 127.137 174.553 126.571C174.488 125.94 174.966 125.397 175.575 125.353L181.644 125.07C181.796 125.07 181.905 124.94 181.905 124.788L181.883 124.505C181.883 124.374 181.774 124.266 181.644 124.244L176.01 123.787C175.423 123.744 174.966 123.265 174.966 122.678C174.988 122.047 175.532 121.547 176.141 121.612C176.141 121.612 184.776 121.873 186.124 121.786L184.232 119.263C183.775 118.85 183.753 118.175 184.167 117.719C184.58 117.262 185.254 117.24 185.711 117.653L191.432 121.742C191.714 122.003 191.758 122.786 191.649 123.439C192.454 129.834 192.519 130.834 192.563 132.574L185.668 132.661C183.688 132.683 181.709 133.075 179.86 133.814L179.403 133.988C178.816 134.227 178.164 133.923 177.968 133.314Z" fill="#FE9F73"/>
<path d="M240.457 71.0623L263.491 62.9275C272.213 59.8606 286.242 56.8372 296.509 63.8845C307.732 71.5843 322.24 92.4652 322.24 92.4652C322.24 92.4652 310.843 100.187 302.425 100.948L296.313 94.5533C296.313 94.5533 304.23 117.348 308.537 143.797C308.537 143.797 278.086 150.801 245.024 133.379C245.024 133.379 243.154 119.023 243.067 115.891L241.61 120.546C241.61 120.546 224.84 116.326 220.076 110.257C220.076 110.257 230.56 81.742 232.017 78.9796C233.997 75.2385 238.108 71.8236 240.457 71.0623Z" fill="white"/>
<path d="M226.534 120.176C226.468 120.176 226.381 120.154 226.316 120.111L220.313 116.631C220.095 116.5 220.03 116.239 220.161 116.022C220.291 115.804 220.552 115.739 220.77 115.869L226.773 119.35C226.99 119.48 227.056 119.741 226.925 119.959C226.816 120.111 226.686 120.176 226.534 120.176Z" fill="#F07162"/>
<path d="M266.405 142.166C266.383 142.166 266.383 142.166 266.361 142.166C253.267 138.208 244.959 133.683 244.893 133.64L244.763 133.575L244.741 133.422C244.719 133.118 241.565 102.645 240.652 95.8152C239.434 86.658 243.849 80.72 243.893 80.6765C244.002 80.546 244.176 80.5243 244.306 80.6113C244.437 80.72 244.458 80.894 244.371 81.0246C244.328 81.0898 240.043 86.832 241.239 95.7282C242.131 102.319 245.067 130.812 245.307 133.205C246.438 133.814 254.42 137.925 266.535 141.601C266.688 141.644 266.775 141.818 266.731 141.971C266.688 142.123 266.535 142.21 266.405 142.166Z" fill="black"/>
<path d="M241.586 120.85C241.564 120.85 241.564 120.85 241.542 120.85C222.314 115.5 219.9 110.606 219.813 110.41L219.77 110.301L219.813 110.192L231.167 80.1979C231.189 80.1326 233.647 74.1294 239.824 71.019C239.976 70.9537 240.15 70.9972 240.215 71.1495C240.281 71.3017 240.237 71.4758 240.085 71.541C234.125 74.5426 231.754 80.3284 231.733 80.3936L220.422 110.258C220.879 110.975 224.359 115.456 241.716 120.285C241.868 120.328 241.977 120.502 241.934 120.655C241.868 120.785 241.716 120.872 241.586 120.85Z" fill="black"/>
<path d="M302.293 115.804C302.184 115.782 302.075 115.695 302.053 115.587C302.01 115.413 297.573 98.7296 295.441 94.0314C295.376 93.8791 295.441 93.7051 295.593 93.6399C295.746 93.5746 295.92 93.6399 295.985 93.7921C298.138 98.5338 302.467 114.695 302.641 115.369C302.684 115.521 302.576 115.761 302.423 115.804C302.38 115.804 302.336 115.826 302.293 115.804Z" fill="black"/>
<path d="M283.482 188.43C283.351 188.43 283.221 188.343 283.199 188.213L272.541 150.17L269.039 143.428C268.974 143.275 269.017 143.101 269.17 143.014C269.322 142.949 269.496 142.992 269.583 143.145L273.107 149.953V149.975L283.764 188.039C283.808 188.191 283.721 188.365 283.547 188.408C283.547 188.43 283.503 188.43 283.482 188.43Z" fill="black"/>
<path d="M243.781 191.214C243.629 191.214 243.477 191.084 243.477 190.91C243.477 190.736 243.607 190.605 243.781 190.605C246.739 190.562 247.587 190.018 247.718 189.909L255.331 175.184C255.396 175.032 255.592 174.988 255.744 175.053C255.896 175.119 255.94 175.314 255.875 175.467L248.218 190.279L248.196 190.301C248.044 190.453 247.283 191.149 243.781 191.214Z" fill="black"/>
<path d="M245.894 192.867C245.785 192.867 245.676 192.802 245.611 192.693C245.546 192.541 245.611 192.367 245.763 192.302C247.416 191.562 247.634 190.105 247.634 190.083C247.656 189.909 247.808 189.8 247.96 189.822C248.134 189.844 248.243 189.996 248.221 190.148C248.221 190.214 247.96 191.976 245.981 192.824C245.959 192.846 245.937 192.867 245.894 192.867Z" fill="black"/>
<path d="M236.519 247.201C235.736 247.201 234.996 247.179 234.322 247.136C234.148 247.114 234.039 246.983 234.039 246.809C234.061 246.635 234.191 246.527 234.365 246.527C238.955 246.831 246.763 245.918 248.286 245.744L247.394 190.844C247.394 190.67 247.525 190.54 247.699 190.54C247.873 190.54 248.003 190.67 248.003 190.844L248.895 246.287L248.634 246.331C248.547 246.331 241.674 247.201 236.519 247.201Z" fill="black"/>
<path d="M237.608 244.091C231.713 244.091 226.82 243.395 226.733 243.373C226.559 243.352 226.45 243.199 226.472 243.025C226.493 242.851 226.646 242.743 226.82 242.764C226.95 242.786 239.457 244.57 248.44 242.395C248.592 242.351 248.766 242.46 248.81 242.612C248.853 242.764 248.744 242.938 248.592 242.982C245.156 243.83 241.197 244.091 237.608 244.091Z" fill="black"/>
<path d="M316.568 196.435C316.459 196.435 316.372 196.391 316.307 196.283C316.22 196.13 316.263 195.956 316.416 195.869C318.243 194.782 319.2 193.325 319.417 192.955L313.892 168.137C313.849 167.985 313.958 167.811 314.11 167.789C314.262 167.745 314.436 167.854 314.458 168.006L320.026 193.042L319.983 193.129C319.939 193.216 318.96 195.021 316.698 196.37C316.677 196.413 316.611 196.435 316.568 196.435Z" fill="black"/>
<path d="M357.522 219.577C357.501 219.577 357.479 219.578 357.435 219.556C357.283 219.512 357.174 219.338 357.218 219.186C358.697 213.879 358.697 206.135 358.697 204.743L320.024 193.433C320.002 194.02 319.893 195.151 319.328 196.717C319.262 196.87 319.11 196.957 318.936 196.891C318.784 196.826 318.697 196.674 318.762 196.5C319.523 194.346 319.415 193.041 319.415 193.041L319.371 192.606L319.784 192.737L359.262 204.287V204.504C359.262 204.591 359.393 213.444 357.762 219.338C357.762 219.49 357.653 219.577 357.522 219.577Z" fill="black"/>
<path d="M351.496 227.125C351.474 227.125 351.452 227.125 351.43 227.125C351.278 227.082 351.169 226.93 351.213 226.755C351.256 226.603 354.889 210.812 354.606 203.33C354.606 203.156 354.736 203.025 354.889 203.025C355.063 203.025 355.193 203.156 355.193 203.308C355.476 210.877 351.822 226.734 351.778 226.908C351.757 227.038 351.648 227.125 351.496 227.125Z" fill="black"/>
<path d="M241.072 147.234C238.854 147.234 237.331 146.169 237.244 146.103C237.114 146.016 237.07 145.821 237.179 145.69C237.266 145.56 237.462 145.516 237.592 145.625C237.614 145.647 239.985 147.256 242.965 146.343C246.14 145.364 248.837 141.993 250.991 136.337C251.056 136.185 251.23 136.098 251.382 136.163C251.534 136.229 251.621 136.403 251.556 136.555C249.338 142.406 246.488 145.908 243.139 146.93C242.399 147.147 241.703 147.234 241.072 147.234Z" fill="black"/>
<path d="M235.632 80.5891C235.589 80.5891 235.545 80.5891 235.502 80.5456C235.349 80.4803 235.306 80.2846 235.371 80.1323L236.937 77.0872C237.002 76.9349 237.198 76.8914 237.351 76.9567C237.503 77.0219 237.546 77.2177 237.481 77.3699L235.915 80.4151C235.85 80.5238 235.741 80.5891 235.632 80.5891Z" fill="black"/>
<path d="M234.089 81.4162C234.046 81.4162 234.002 81.4162 233.959 81.3945C233.806 81.3292 233.741 81.1552 233.806 81.0029L235.307 77.762C235.373 77.6098 235.547 77.5445 235.699 77.6098C235.851 77.675 235.916 77.849 235.851 78.0013L234.35 81.2422C234.307 81.3509 234.198 81.4162 234.089 81.4162Z" fill="black"/>
<path d="M300.996 132.704H300.975C300.801 132.683 300.692 132.552 300.714 132.378L301.04 128.833C301.062 128.659 301.214 128.55 301.366 128.572C301.54 128.593 301.649 128.724 301.627 128.898L301.301 132.443C301.279 132.596 301.149 132.704 300.996 132.704Z" fill="black"/>
<path d="M251.371 46.2229L252.089 58.1424C252.089 58.1424 252.176 62.1881 255.678 62.4709L255.46 66.2773C255.243 69.8009 258.136 72.7373 261.659 72.5633C261.703 72.5633 261.746 72.5633 261.768 72.5633C265.748 72.324 267.728 69.1702 267.967 67.6258C268.206 66.1033 266.771 58.9255 266.771 58.9255L266.684 55.3583L265.4 41.6335L251.371 46.2229Z" fill="#FE9F73"/>
<path d="M261.342 51.6169C261.386 51.6169 261.429 51.5951 261.451 51.5734C261.516 51.5081 261.516 51.3994 261.451 51.3341C261.429 51.3124 258.993 49.0938 257.014 50.9209C256.949 50.9861 256.949 51.0949 257.014 51.1601C257.079 51.2254 257.188 51.2254 257.253 51.1819C259.015 49.5723 261.146 51.5081 261.233 51.5951C261.255 51.5951 261.299 51.6169 261.342 51.6169Z" fill="#0E100F"/>
<path d="M254.444 51.03C254.487 51.03 254.531 51.0083 254.574 50.9647C254.639 50.8995 254.618 50.7907 254.552 50.7255C254.487 50.6602 252.812 49.3987 251.877 50.334C251.812 50.3992 251.812 50.508 251.877 50.5732C251.942 50.6385 252.051 50.6385 252.116 50.5732C252.856 49.8555 254.357 50.9865 254.357 51.0083C254.357 51.0083 254.4 51.03 254.444 51.03Z" fill="#0E100F"/>
<path d="M258.029 52.487C258.051 52.7698 258.29 52.9873 258.551 52.9656C258.834 52.9438 259.03 52.7046 259.008 52.4218C258.986 52.139 258.747 51.9215 258.486 51.9433C258.203 51.9868 258.007 52.226 258.029 52.487Z" fill="black"/>
<path d="M252.693 52.3131C252.715 52.5959 252.954 52.8134 253.215 52.7916C253.498 52.7699 253.693 52.5306 253.672 52.2478C253.65 51.9651 253.411 51.7476 253.15 51.7693C252.889 51.7911 252.671 52.0303 252.693 52.3131Z" fill="black"/>
<path d="M256.459 56.0109C256.502 56.0109 256.524 55.9892 256.524 55.9457C256.546 55.9022 256.502 55.8586 256.459 55.8369L254.762 55.3801L255.045 51.378C255.045 51.3345 255.023 51.291 254.958 51.291C254.914 51.291 254.871 51.3127 254.871 51.378L254.566 55.5106L256.393 56.0109C256.459 56.0109 256.459 56.0109 256.459 56.0109Z" fill="#F07162"/>
<path d="M258.012 57.4683C257.947 57.4683 254.467 57.6858 254.467 57.6858C254.467 57.6858 255.032 59.0996 256.316 59.0343C257.621 58.9473 258.012 57.4683 258.012 57.4683Z" fill="#FBFDFC"/>
<path d="M264.968 42.3734L262.445 46.5278C262.445 46.5278 252.548 48.2678 248.002 44.6137C243.456 40.9595 246.436 37.5447 248.829 37.6752C251.243 37.7839 253.244 38.9802 254.658 37.3054C256.072 35.6306 258.008 35.3261 260.422 36.5224C262.814 37.7187 265.707 39.8938 265.446 40.829C265.185 41.7643 264.968 42.3734 264.968 42.3734Z" fill="#0E100F"/>
<path d="M264.716 40.6984C264.716 40.6984 268.522 40.2852 269.827 43.9393C271.132 47.6152 269.806 49.6598 269.827 50.7691C269.849 51.8784 271.067 59.3389 265.825 59.0997L263.672 46.7887L265.173 41.7425L264.716 40.6984Z" fill="#0E100F"/>
<path d="M262.126 52.0744C262.234 53.7492 263.648 55.0107 265.301 54.9237C266.954 54.815 268.194 53.3794 268.107 51.7263C268.02 50.0733 266.585 48.79 264.932 48.877C263.278 48.964 262.017 50.3995 262.126 52.0744Z" fill="#FE9F73"/>
<path d="M265.428 53.7274C266.037 53.6839 266.428 53.1836 266.537 52.7051C266.668 52.1396 266.45 51.5958 265.993 51.3565C265.297 50.9868 264.732 51.2913 264.427 51.5088C264.536 51.1608 264.732 50.8998 264.993 50.7258C265.558 50.356 266.298 50.5518 266.32 50.5518C266.363 50.5735 266.407 50.53 266.428 50.4865C266.45 50.443 266.407 50.3995 266.363 50.3778C266.32 50.3778 265.537 50.1603 264.906 50.5735C264.536 50.8128 264.319 51.1825 264.21 51.7263L264.145 52.0308L264.34 51.8133C264.362 51.7916 265.036 51.0303 265.906 51.5088C266.385 51.7698 266.472 52.2918 266.385 52.6834C266.298 53.0749 265.993 53.5316 265.428 53.5751H265.406C265.363 53.5751 265.319 53.6186 265.319 53.6621C265.341 53.7057 265.384 53.7274 265.428 53.7274Z" fill="#F07162"/>
<path d="M263.53 58.5776C263.53 58.5776 263.791 63.9936 255.504 65.1464L255.656 62.4928C255.678 62.4928 261.137 63.2541 263.53 58.5776Z" fill="#F07162"/>
<path d="M265.186 75.4994C265.077 75.4777 264.99 75.4124 264.947 75.3037C264.903 75.1514 264.99 74.9774 265.143 74.9339C270.776 73.1068 269.34 65.059 269.34 64.972C269.319 64.8198 269.427 64.6457 269.58 64.624C269.732 64.6022 269.906 64.711 269.928 64.8633C269.949 64.9503 271.472 73.5201 265.338 75.4994C265.273 75.4994 265.23 75.4994 265.186 75.4994Z" fill="black"/>
<path d="M247.181 256.88H232.456L226.496 250.203L215.577 256.88H213.228C212.423 256.88 211.684 257.446 211.531 258.251C211.336 259.338 212.14 260.317 213.184 260.317H247.399C247.66 260.317 247.855 260.1 247.855 259.86V257.576C247.834 257.185 247.551 256.88 247.181 256.88Z" fill="white"/>
<path d="M247.055 256.902V250.703C247.055 250.703 244.576 247.288 240.813 249.028C240.813 249.028 235.114 253.183 230.068 248.158L217.561 253.835C217.561 253.835 214.124 255.01 213.211 256.902H247.055V256.902Z" fill="#212122"/>
<path d="M247.173 250.703H246.912V256.88H247.173V250.703Z" fill="black"/>
<path d="M235.676 250.768C235.197 250.768 234.914 250.724 234.893 250.724L234.936 250.463C234.958 250.463 237.916 250.899 240.722 248.919L240.874 249.137C238.851 250.551 236.763 250.768 235.676 250.768Z" fill="black"/>
<path d="M244.012 255.728L243.859 255.532L245.469 254.423L245.599 254.64L244.012 255.728Z" fill="black"/>
<path d="M242.851 255.423L242.721 255.206L244.309 254.097L244.461 254.314L242.851 255.423Z" fill="black"/>
<path d="M211.975 260.012C211.561 259.664 211.344 259.142 211.344 258.598C211.344 257.576 212.149 256.749 213.149 256.749H246.993C247.515 256.749 247.95 257.184 247.95 257.75V259.468H247.689V257.75C247.689 257.336 247.363 257.01 246.972 257.01H213.127C212.279 257.01 211.583 257.728 211.583 258.598C211.583 259.055 211.779 259.511 212.127 259.816L211.975 260.012Z" fill="black"/>
<path d="M213.272 256.947L213.055 256.838C213.076 256.773 213.772 255.337 216.317 254.228C218.84 253.118 229.89 248.094 229.999 248.05L230.107 248.29C229.999 248.333 218.949 253.379 216.426 254.467C213.968 255.533 213.272 256.925 213.272 256.947Z" fill="black"/>
<path d="M372.267 210.116L370.222 224.689L362.783 229.67L367.873 241.416L367.547 243.743C367.438 244.548 367.895 245.352 368.678 245.613C369.743 245.961 370.809 245.287 370.94 244.265L375.703 210.377C375.747 210.138 375.551 209.898 375.312 209.855L373.05 209.529C372.68 209.507 372.332 209.746 372.267 210.116Z" fill="white"/>
<path d="M372.262 210.247L366.128 209.377C366.128 209.377 362.387 211.356 363.605 215.336C363.605 215.336 366.933 221.557 361.256 225.842L365.149 239.001C365.149 239.001 365.845 242.568 367.585 243.743L372.262 210.247Z" fill="#212122"/>
<path d="M366.148 209.245L366.111 209.503L372.229 210.362L372.265 210.103L366.148 209.245Z" fill="black"/>
<path d="M364.627 220.666C364.562 221.144 364.475 221.427 364.475 221.427L364.236 221.362C364.236 221.34 365.084 218.469 363.496 215.424L363.735 215.315C364.845 217.468 364.779 219.578 364.627 220.666Z" fill="black"/>
<path d="M370.703 213.095L370.485 213.204L369.615 211.464L369.833 211.355L370.703 213.095Z" fill="black"/>
<path d="M370.244 214.185L370.005 214.293L369.135 212.575L369.374 212.466L370.244 214.185Z" fill="black"/>
<path d="M370.483 245.395C370.069 245.743 369.547 245.895 369.004 245.83C368.003 245.677 367.285 244.764 367.416 243.785L372.114 210.267C372.179 209.745 372.679 209.375 373.223 209.44L374.92 209.68L374.876 209.919L373.18 209.68C372.788 209.614 372.418 209.897 372.353 210.289L367.655 243.807C367.546 244.655 368.155 245.438 369.004 245.569C369.46 245.634 369.939 245.503 370.287 245.199L370.483 245.395Z" fill="black"/>
<path d="M367.63 243.699L367.5 243.917C367.434 243.873 366.108 243.003 365.368 240.306C364.629 237.674 361.192 226.016 361.148 225.907L361.388 225.842C361.431 225.95 364.868 237.609 365.607 240.262C366.325 242.829 367.608 243.677 367.63 243.699Z" fill="black"/>
<path d="M320.804 90.2902C320.804 90.2902 324.502 98.686 324.806 102.688C325.024 105.712 313.452 122.525 307.753 130.529C305.883 133.161 304.708 134.597 304.708 134.597L303.273 133.531L296.486 128.507L309.015 103.297L302.468 89.8552L320.804 90.2902Z" fill="#FE9F73"/>
<path d="M301.335 119.089C301.292 119.089 301.248 119.089 301.205 119.067C301.053 119.002 301.009 118.828 301.074 118.675L308.709 103.319L307.056 99.9479C306.991 99.7956 307.056 99.6434 307.186 99.5564C307.339 99.4911 307.491 99.5564 307.578 99.6869L309.34 103.319L301.596 118.936C301.531 119.023 301.444 119.089 301.335 119.089Z" fill="#F07162"/>
<path d="M308.713 103.58C308.604 103.493 308.539 103.363 308.539 103.232C308.561 103.015 308.735 102.841 308.974 102.841L315.391 103.211C315.608 103.232 315.782 103.406 315.782 103.646C315.76 103.863 315.586 104.037 315.347 104.037L308.931 103.667C308.844 103.646 308.757 103.624 308.713 103.58Z" fill="#F07162"/>
<path d="M299.748 87.6801L307.1 99.7953L314.321 96.9677L320.303 93.8138L323.13 92.3565L315.757 83.8084L311.233 84.5915L299.748 87.6801Z" fill="white"/>
<path d="M302.341 101.231L285.179 83.4173C285.07 83.3086 285.07 83.1128 285.179 83.0041C285.288 82.8953 285.484 82.8953 285.592 83.0041L302.558 100.579C303.733 100.383 311.737 98.8822 322.917 92.0524C323.048 91.9654 323.243 92.0089 323.33 92.1612C323.417 92.2917 323.374 92.4874 323.222 92.5744C311.041 100.013 302.558 101.188 302.471 101.21L302.341 101.231Z" fill="black"/>
<path d="M298.315 124.853C297.01 126.071 293.986 128.05 293.986 128.05C293.986 128.05 288.266 132.531 287.94 132.944C287.592 133.357 286.526 136.228 286.635 137.533C286.743 138.838 287.94 139.012 287.94 139.012C287.744 141.797 289.81 141.122 289.81 141.122C290.115 142.841 292.007 142.232 292.007 142.232C292.529 143.863 294.378 143.08 294.378 143.08C296.684 141.449 299.946 139.23 301.926 137.446C303.84 135.728 304.927 134.575 307.798 130.486L298.315 124.853Z" fill="#FE9F73"/>
<path d="M291.552 133.183C291.552 133.227 291.53 133.27 291.487 133.292C291.465 133.314 290.073 134.445 289.725 135.01C289.42 135.467 288.529 137.881 288.094 139.099C288.072 139.186 287.963 139.23 287.876 139.208C287.789 139.186 287.746 139.077 287.767 138.99C287.811 138.838 289.029 135.445 289.42 134.836C289.812 134.227 291.204 133.096 291.269 133.031C291.334 132.965 291.443 132.987 291.508 133.052C291.552 133.096 291.552 133.14 291.552 133.183Z" fill="#F07162"/>
<path d="M293.553 135.858C293.553 135.902 293.532 135.945 293.488 135.967C293.466 135.967 292.357 136.859 291.835 137.533C291.313 138.207 289.964 141.187 289.943 141.209C289.899 141.296 289.812 141.34 289.725 141.296C289.638 141.253 289.595 141.166 289.638 141.079C289.703 140.948 291.03 138.033 291.574 137.337C292.118 136.62 293.249 135.75 293.292 135.706C293.358 135.641 293.466 135.663 293.532 135.728C293.553 135.75 293.575 135.815 293.553 135.858Z" fill="#F07162"/>
<path d="M295.205 137.686C295.205 137.729 295.183 137.773 295.139 137.795C295.139 137.795 294.356 138.36 293.813 139.034C293.269 139.709 292.159 142.297 292.159 142.341C292.116 142.428 292.029 142.471 291.942 142.428C291.855 142.384 291.811 142.297 291.855 142.21C291.898 142.101 292.986 139.535 293.573 138.839C294.161 138.121 294.944 137.555 294.965 137.534C295.052 137.468 295.139 137.49 295.205 137.577C295.205 137.599 295.226 137.642 295.205 137.686Z" fill="#F07162"/>
<path d="M241.934 70.5623C237.497 88.5068 242.913 116.13 242.913 116.13C246.371 81.6335 250.7 67.4519 250.7 67.4519C250.004 66.3861 242.043 69.6052 241.934 70.5623Z" fill="#FEDB69"/>
<path d="M271.168 60.7525C273.93 93.8791 298.639 113.324 302.011 114.608C300.597 107.017 301.88 107.278 301.88 107.278C284.828 88.3109 283.783 66.8427 282.565 59.6432C282.109 59.0342 271.668 59.6867 271.168 60.7525Z" fill="#FEDB69"/>
<path d="M241.61 109.039C241.001 104.863 240.218 98.425 239.979 91.5735C239.674 83.1994 240.24 76.0869 241.61 70.4969C241.806 69.4528 246.569 67.6258 248.57 67.1472C249.919 66.821 250.658 66.8862 250.941 67.2995L251.006 67.4083L250.985 67.5388C250.963 67.6258 249.071 75.3908 248.331 79.5453L247.722 79.4365C248.396 75.6301 250.028 68.8438 250.332 67.5823C250.223 67.5388 249.962 67.517 249.419 67.604C246.983 67.9738 242.48 70.0183 242.219 70.6056V70.6274C240.849 76.1739 240.305 83.2212 240.588 91.5517C240.827 98.3815 241.61 104.776 242.197 108.952L241.61 109.039Z" fill="black"/>
<path d="M302.643 115.413L302.077 115.195C301.273 114.89 299.728 113.759 297.205 111.606L297.597 111.128C299.511 112.737 300.859 113.803 301.708 114.303C300.62 110.279 299.707 106.125 299.641 105.82C299.467 105.277 299.38 104.972 299.359 104.842C296.488 100.97 295.617 99.7301 295.596 99.7084L296.096 99.3604C296.096 99.3821 296.966 100.622 299.881 104.515L299.924 104.581L299.946 104.646C299.946 104.646 299.989 104.929 300.229 105.625V105.668C300.229 105.712 301.273 110.475 302.469 114.804L302.643 115.413Z" fill="black"/>
<path d="M286.526 80.8722C284.155 73.4769 283.285 66.9951 282.697 62.6884C282.545 61.5791 282.415 60.6003 282.284 59.7955C281.806 59.665 279.761 59.6215 276.803 59.8608C273.171 60.1653 271.604 60.6221 271.43 60.8613L270.887 60.5786C270.995 60.3828 271.3 59.752 276.194 59.2953C277.651 59.1648 279.196 59.0778 280.392 59.056C282.523 59.0343 282.697 59.2735 282.806 59.404L282.85 59.4693L282.871 59.5345C283.024 60.3611 283.154 61.4051 283.306 62.5797C283.894 66.8428 284.764 73.3029 287.113 80.6547L286.526 80.8722Z" fill="black"/>
</svg>
